<svg width="33" height="33" viewBox="0 0 33 33" fill="none" xmlns="http://www.w3.org/2000/svg">
<path d="M32.5 17.25C32.5 18.3687 32.2312 19.4063 31.6937 20.3563C31.1562 21.3063 30.4375 22.05 29.5312 22.5687C29.5562 22.7375 29.5687 23 29.5687 23.3563C29.5687 25.05 29 26.4875 27.875 27.675C26.7437 28.8687 25.3812 29.4625 23.7875 29.4625C23.075 29.4625 22.3938 29.3312 21.75 29.0687C21.25 30.0937 20.5312 30.9187 19.5875 31.55C18.65 32.1875 17.6187 32.5 16.5 32.5C15.3562 32.5 14.3187 32.1937 13.3937 31.5687C12.4625 30.95 11.75 30.1187 11.25 29.0687C10.6062 29.3312 9.93125 29.4625 9.2125 29.4625C7.61875 29.4625 6.25 28.8687 5.10625 27.675C3.9625 26.4875 3.39375 25.0438 3.39375 23.3563C3.39375 23.1688 3.41875 22.9062 3.4625 22.5687C2.55625 22.0437 1.8375 21.3063 1.3 20.3563C0.76875 19.4063 0.5 18.3687 0.5 17.25C0.5 16.0625 0.8 14.9688 1.39375 13.9812C1.9875 12.9937 2.7875 12.2625 3.7875 11.7875C3.525 11.075 3.39375 10.3562 3.39375 9.64375C3.39375 7.95625 3.9625 6.5125 5.10625 5.325C6.25 4.1375 7.61875 3.5375 9.2125 3.5375C9.925 3.5375 10.6062 3.66875 11.25 3.93125C11.75 2.90625 12.4688 2.08125 13.4125 1.45C14.35 0.81875 15.3813 0.5 16.5 0.5C17.6187 0.5 18.65 0.81875 19.5875 1.44375C20.525 2.075 21.25 2.9 21.75 3.925C22.3938 3.6625 23.0687 3.53125 23.7875 3.53125C25.3812 3.53125 26.7437 4.125 27.875 5.31875C29.0063 6.5125 29.5687 7.95 29.5687 9.6375C29.5687 10.425 29.45 11.1375 29.2125 11.7812C30.2125 12.2562 31.0125 12.9875 31.6062 13.975C32.2 14.9687 32.5 16.0625 32.5 17.25ZM15.8187 22.0687L22.425 12.175C22.5937 11.9125 22.6437 11.625 22.5875 11.3188C22.525 11.0125 22.3687 10.7688 22.1063 10.6062C21.8438 10.4375 21.5562 10.3812 21.25 10.425C20.9375 10.475 20.6875 10.625 20.5 10.8875L14.6812 19.6375L12 16.9625C11.7625 16.725 11.4875 16.6125 11.1812 16.625C10.8687 16.6375 10.6 16.75 10.3625 16.9625C10.15 17.175 10.0437 17.4437 10.0437 17.7687C10.0437 18.0875 10.15 18.3563 10.3625 18.575L14.0437 22.2562L14.225 22.4C14.4375 22.5437 14.6562 22.6125 14.8687 22.6125C15.2875 22.6062 15.6062 22.4312 15.8187 22.0687Z" fill="#1DA1F2"/>
</svg>
